# xmcd
#
# Track frame offsets:
#	150
#	14177
#	27005
#	42933
#	55718
#	75133
#	89364
#	110707
#	127001
#	143704
#	161508
#	173829
#	193019
#	205769
#	218150
#	238021
#	256098
#	273902
#	289879
#	304952
#
# Disc length: 4394 seconds
#
# Revision: 0
# Processed by: cddbd v1.5PL3 Copyright (c) Steve Scherf et al.
# Submitted via: dBpowerAMP V4.0
#
DISCID=19112814
DTITLE=Clint Black  - Ultimate Clint Black
DYEAR=1900
DGENRE=
TTITLE0=A Better Man
TTITLE1=Killin Time
TTITLE2=Nobody's Home
TTITLE3=Walkin Away
TTITLE4=Loving Blind
TTITLE5=Where Are You Now
TTITLE6=We Tell Ourselves
TTITLE7=When My Ship Comes In
TTITLE8=A Bad Goodbye (With Wynonna)
TTITLE9=State Of Mind
TTITLE10=A Good Run Of Bad Luck
TTITLE11=Wherever You Go
TTITLE12=Summer's Comin
TTITLE13=One Emotion
TTITLE14=Like The Rain
TTITLE15=Something That We Do
TTITLE16=Nothin But The Taillights
TTITLE17=The Shoes You're Wearing
TTITLE18=Dixie Lullaby (With Bruce Horsby)
TTITLE19=Been There
EXTD=
EXTT0=
EXTT1=
EXTT2=
EXTT3=
EXTT4=
EXTT5=
EXTT6=
EXTT7=
EXTT8=
EXTT9=
EXTT10=
EXTT11=
EXTT12=
EXTT13=
EXTT14=
EXTT15=
EXTT16=
EXTT17=
EXTT18=
EXTT19=
PLAYORDER=
